<svg width="116" height="29" viewBox="0 0 116 29" fill="none" xmlns="http://www.w3.org/2000/svg">
<path d="M13.2049 0.546875V4.66215H9.12798V28.0297H4.07692V4.66215H0V0.546875H13.2049Z" fill="#062106"/>
<path d="M26.7865 23.9145V28.0297H15.8906V0.546875H26.0288V4.66215H20.7613V12.1054H25.4155V15.9344H20.7613V23.9145H26.7865Z" fill="#062106"/>
<path d="M41.4933 20.7976C41.4933 25.8075 39.545 28.563 35.0351 28.563C33.159 28.563 31.6798 28.062 30.5613 27.0242C29.4429 25.9865 28.9017 24.1256 28.9017 21.4418C28.9017 20.3324 29.2264 18.5432 29.515 17.577L33.8445 17.3981C33.7002 18.5074 33.5198 20.0461 33.5198 21.2271C33.5198 24.2688 33.9528 25.1992 35.0712 25.1992C35.5041 25.1992 35.8289 24.9845 36.0814 24.5551C36.334 24.1256 36.4422 23.1594 36.4422 21.6207C36.4422 19.6883 36.2257 18.3285 35.7567 17.577C35.3238 16.7897 34.53 16.074 33.4116 15.4299L32.1488 14.7142C29.4068 13.1396 28.4688 10.3842 28.4688 7.19934C28.4688 2.51151 30.6335 0.078125 34.53 0.078125C38.3905 0.078125 40.4109 2.22523 40.4109 6.23314C40.4109 7.19934 40.2305 8.20132 40.0501 9.09594L35.7928 9.52536C35.901 8.77388 36.0453 7.34248 36.0453 6.51942C36.0453 3.9429 35.7567 3.11985 34.6022 3.11985C33.4837 3.11985 33.3394 4.15761 33.3394 6.12579C33.3394 7.66454 33.5559 8.73809 33.9888 9.38222C34.4579 9.99057 35.0351 10.5273 35.7206 10.921L37.2359 11.7798C39.7975 13.2112 41.4933 15.8951 41.4933 20.7976Z" fill="#062106"/>
<path d="M55.2674 0.546875V4.66215H51.1905V28.0297H46.1394V4.66215H42.0625V0.546875H55.2674Z" fill="#062106"/>
<path d="M71.1514 20.2644C71.1514 25.9542 68.5897 28.0297 64.2603 28.0297H58.0547V0.546875H64.2964C66.6776 0.546875 68.265 1.22679 69.0949 2.58662C69.9247 3.91066 70.3576 5.77148 70.3576 8.09751C70.3576 11.4255 69.1309 13.2863 66.9301 13.3937C69.3474 13.3937 71.1514 15.8271 71.1514 20.2644ZM65.9921 19.7276C65.9921 16.7217 65.6313 15.1114 64.0438 15.1114H62.8532V24.8091H64.116C64.8736 24.8091 65.3426 24.487 65.5952 23.8429C65.8477 23.163 65.9921 21.8032 65.9921 19.7276ZM65.6313 8.16908C65.6313 4.98421 65.3066 3.76752 63.7191 3.76752H62.8532V11.676H64.0799C65.3426 11.676 65.6313 10.4951 65.6313 8.16908Z" fill="#062106"/>
<path d="M111.524 13.68L115.998 28.0297H110.586L108.313 19.6203L106.581 28.0297H101.891L105.679 13.6442L102.287 0.546875H107.519L109.251 7.91858L111.019 0.546875H115.781L111.524 13.68Z" fill="#062106"/>
<path d="M88.0709 0C87.1456 0 86.1226 0.263697 85.8308 0.395556L76.9186 4.25219C76.9186 4.25219 76.0165 4.58052 75.5063 5.24107C74.9961 5.9016 74.9219 6.62549 74.9219 7.07049C74.9218 7.51548 74.9219 13.0532 74.9219 13.0532C74.36 13.3406 73.7334 13.7884 73.4338 14.2829C73.0441 14.9256 72.6543 16.0218 73.1412 17.0601C73.775 18.1015 74.4575 18.5479 74.9219 18.9371V21.7059C74.9609 22.2596 75.1118 22.5465 75.2141 22.6948C75.3164 22.8432 75.7012 23.4365 76.7238 23.9803L85.3437 27.837C86.6097 28.4797 88.7532 28.5292 89.9704 28.0348L93.5254 26.502L99.0286 24.0792C99.6523 23.8023 100.198 23.3046 100.392 23.0903C100.782 22.6157 101.026 22.052 101.026 21.4092V6.87272C100.977 6.08161 100.661 5.58717 100.441 5.29051C100.317 5.12269 100.003 4.74662 98.7855 4.1533L90.847 0.642769C89.6395 0.0890001 88.9963 0 88.0709 0Z" fill="#062106"/>
<path d="M87.9832 0.710938C87.1091 0.710938 86.1442 0.961452 85.8678 1.08671L77.4525 4.75051C77.4525 4.75051 76.6112 5.05217 76.119 5.68996C75.6268 6.32774 75.5672 7.00517 75.5671 7.42791C75.5671 7.85066 75.5588 13.738 75.5588 13.738C74.7708 13.738 74.1675 14.2159 73.8657 14.6827C73.5122 15.2296 73.2686 16.1743 73.8046 17.0195C74.438 17.8649 75.169 18.4118 75.5671 18.5112V21.3315C75.604 21.8577 75.7465 22.1301 75.8431 22.271C75.9396 22.412 76.3029 22.9756 77.2686 23.4923L85.4078 27.156C86.6032 27.7668 88.6268 27.8137 89.7763 27.344L93.134 25.8878L98.3297 23.5862C98.9186 23.3232 99.4333 22.8503 99.6179 22.6468C99.9851 22.1958 100.216 21.6604 100.216 21.0498V7.24002C100.17 6.48848 99.8709 6.01876 99.6638 5.73692C99.5466 5.57751 99.2497 5.22023 98.1002 4.65658L90.6045 1.32157C89.4638 0.79549 88.8573 0.710938 87.9832 0.710938Z" fill="#62CCAE"/>
<path d="M75.5689 12.8828C75.7953 12.9499 76.4282 13.2581 76.467 13.9421C76.5642 16.4139 76.467 16.7165 75.8354 17.5236C75.7654 17.6132 75.6411 17.7215 75.5773 18.0281V19.0291H74.8894V17.7215C74.8894 17.5707 74.9379 17.3695 75.132 17.1683C75.3747 16.9168 75.6712 16.5148 75.7382 16.0103C75.7869 15.2032 75.7382 14.4466 75.6897 13.9926C75.6571 13.6879 75.2524 13.6899 74.9885 13.7908L74.7391 13.8649C74.7003 13.8821 74.6689 13.8947 74.6484 13.8917L75.5689 12.8828Z" fill="#062106"/>
<path d="M79.921 8.61865C79.7748 9.49103 79.1238 10.0611 78.5154 9.89783C77.907 9.7346 77.638 8.89728 77.8395 8.02753C78.0096 7.29349 78.5964 6.62912 79.2451 6.7483C79.8535 6.91156 80.0832 7.65123 79.921 8.61865Z" fill="#062106"/>
<path d="M86.128 6.6655C85.8826 7.65371 85.1659 8.30697 84.4374 8.12483C83.7092 7.94273 83.3909 6.99375 83.6367 6.00554C84.0004 5.05731 84.6514 4.46789 85.3652 4.63878C86.0937 4.82088 86.3745 5.67729 86.128 6.6655Z" fill="#062106"/>
<path d="M78.2621 12.496C77.8709 12.6111 77.6127 13.0943 77.6127 13.4912L77.5391 16.1294C77.5391 20.1477 79.4672 21.8345 80.7686 22.3802C82.9667 23.1343 84.683 21.5368 85.2994 20.5943C86.4345 18.858 86.7939 16.0787 86.7939 14.3435V12.3094C86.7939 11.5157 86.2974 11.3736 86.0838 11.3516C85.6984 11.3119 85.2153 11.5842 85.0221 11.6999C84.4434 12.0475 83.3021 12.8053 82.7545 13.0932C81.8861 13.5497 80.9206 13.6015 80.4386 13.4912C80.0916 13.4118 79.7081 13.128 79.419 12.9048C78.9562 12.5476 78.6534 12.381 78.2621 12.496Z" fill="#062106"/>
<path d="M85.9862 17.5047C81.8458 17.3076 80.1897 19.4915 79.5078 20.756C80.7157 22.1748 82.4114 22.0862 82.9661 21.8398C85.0119 20.9315 85.791 18.5392 85.9862 17.5047Z" fill="#D7F5EC"/>
<path fill-rule="evenodd" clip-rule="evenodd" d="M88.4141 0.710938C88.6698 0.873229 88.9512 1.23895 88.9512 1.94732V11.1123C89.1027 11.0725 89.3613 11.0957 89.4712 11.1123L89.5659 2.19637C89.5659 1.96392 89.5659 1.59865 89.7545 1.39941C89.8861 1.26064 90.0566 1.17945 90.265 1.18408C89.5063 0.848398 88.9957 0.739645 88.4141 0.710938Z" fill="#D7F5EC"/>
<path d="M89.0792 23.9652L88.9922 18.2031C89.1227 18.4003 89.2531 18.4936 89.3392 18.4936L89.2531 23.9652C89.2531 24.0637 89.221 24.113 89.1662 24.113C89.1105 24.113 89.0792 24.0637 89.0792 23.9652Z" fill="url(#paint0_linear_667_307)"/>
<path d="M88.0703 14.7925C88.1185 16.1409 88.7249 16.5297 88.9967 16.7461V18.2434C89.0738 18.6029 89.417 18.5994 89.5741 18.4931C90.4591 17.8938 91.1994 17.247 91.8742 16.145C92.4035 15.043 92.2589 13.689 92.0188 13.1896C91.7528 12.6386 91.4404 12.1878 90.7184 11.6368C90.0928 11.1359 89.3573 11.0567 88.937 11.1359C88.4077 11.2358 88.1667 11.6892 88.1185 12.4383L88.0703 14.7925Z" fill="#062106"/>
<path d="M88.801 12.9836L88.7656 14.7746C88.801 15.5633 89.2362 16.0311 89.5174 16.2578C89.6705 16.3979 89.6724 16.5561 89.6839 16.7539V17.2165C89.6839 17.3961 89.7537 17.3956 89.8149 17.3466C90.3773 16.9028 91.0469 16.3305 91.3807 15.4641C91.572 14.9695 91.66 13.9758 91.2583 13.3804C90.6825 12.526 90.0321 11.8786 89.3749 11.9417C88.9015 11.9872 88.801 12.5181 88.801 12.9836Z" fill="#62CCAE"/>
<defs>
<linearGradient id="paint0_linear_667_307" x1="89.1662" y1="18.2471" x2="89.1662" y2="24.5567" gradientUnits="userSpaceOnUse">
<stop stop-color="#D7F5EC"/>
<stop offset="1" stop-color="#D7F5EC" stop-opacity="0"/>
</linearGradient>
</defs>
</svg>
